<svg width="1043" height="1043" viewBox="0 0 1043 1043" fill="none" xmlns="http://www.w3.org/2000/svg">
<g clip-path="url(#clip0_310_7)">
<path d="M1043 0H0V1043H1043V0Z" fill="url(#paint0_linear_310_7)"/>
<path d="M330 443V348C330 242 415 164 521.5 164C628 164 713 242 713 348V443" stroke-width="47" stroke-linecap="round" stroke="white"/>
<path d="M521.5 616V443H818V616H521.5Z" fill="url(#paint1_linear_310_7)"/>
<path d="M292 443H751C788.003 443 818 472.997 818 510V806C818 843.003 788.003 873 751 873H292C254.997 873 225 843.003 225 806V510C225 472.997 254.997 443 292 443Z" stroke-width="47" stroke="white"/>
<path d="M521.5 662.125C546.974 662.125 567.625 641.474 567.625 616C567.625 590.526 546.974 569.875 521.5 569.875C496.026 569.875 475.375 590.526 475.375 616C475.375 641.474 496.026 662.125 521.5 662.125Z" fill="white"/>
<path d="M521.5 648V725" stroke-width="38" stroke-linecap="round" stroke="white"/>
</g>
<defs>
<linearGradient id="paint0_linear_310_7" x1="0" y1="0" x2="1043" y2="1043" gradientUnits="userSpaceOnUse">
<stop stop-color="#236BB4"/>
<stop offset="0.65" stop-color="#6C70CD"/>
<stop offset="1" stop-color="#A96BCE"/>
</linearGradient>
<linearGradient id="paint1_linear_310_7" x1="521.5" y1="616" x2="672.109" y2="357.876" gradientUnits="userSpaceOnUse">
<stop stop-color="white" stop-opacity="0"/>
<stop offset="1" stop-color="white" stop-opacity="0.5"/>
</linearGradient>
<clipPath id="clip0_310_7">
<rect width="1043" height="1043" fill="white"/>
</clipPath>
</defs>
</svg>
